<svg xmlns="http://www.w3.org/2000/svg" viewBox="0 0 205.84 95.9"><defs><style>.cls-1{fill:#ffffff;}.cls-2{fill:#ff6a3b;}</style></defs><title>eazycloud_signet</title><g id="Ebene_2" data-name="Ebene 2"><g id="Logo"><path class="cls-1" d="M92.63,45.4,69,69a29.8,29.8,0,1,1-5.79-46.61L44.49,41.15,57.34,54,81,30.38l-.09-.09,8.62-8.62L81.86,14a48,48,0,1,0,0,67.82l23.62-23.62Z"/><path class="cls-2" d="M191.81,14A48,48,0,0,0,124,14L100.37,37.66l12.84,12.85,23.62-23.62a29.78,29.78,0,1,1,0,42.14l-7.62-7.63L116.37,74.24,124,81.86A48,48,0,0,0,191.81,14Z"/></g></g></svg>
