<svg xmlns="http://www.w3.org/2000/svg" viewBox="0 0 500 227.73"><defs><style>.cls-1{fill:#fff;}</style></defs><title>eazycloud_logo_white</title><g id="Ebene_2" data-name="Ebene 2"><g id="Logo"><path class="cls-1" d="M24.38,155.3c13.75,0,20.47,10.73,20.47,22.87a10.82,10.82,0,0,1-.1,1.8,2.75,2.75,0,0,0-.1.9H4.42c0,14.55,9.83,22.87,21.47,22.87a22.45,22.45,0,0,0,11.44-3.21,19.31,19.31,0,0,0,4.11-3.11l2.31,3.51a24.29,24.29,0,0,1-4.82,3.41,26.9,26.9,0,0,1-13,3.51C11.74,207.87,0,197.64,0,181.68,0,164.83,11.54,155.3,24.38,155.3ZM40.43,177c-.5-12.34-7.72-17.76-16.15-17.76-9.23,0-17.65,6-19.56,17.76Z"/><path class="cls-1" d="M85.17,176.07h3.31v-2.21c0-10.73-5.42-14.55-13.34-14.55a25.59,25.59,0,0,0-10.63,2.41,23.37,23.37,0,0,0-4.11,2.51L58,160.82A20.14,20.14,0,0,1,62.5,158a28,28,0,0,1,12.74-2.71c11.64,0,17.46,6.12,17.46,18.46v26.78a1.93,1.93,0,0,0,2.21,2.21h6v3.91H94.3c-4.11,0-5.82-1.61-5.82-5.52V200a25,25,0,0,1,.2-3.31l.2-1.2h-.2a18.8,18.8,0,0,1-3.91,6.12,17.76,17.76,0,0,1-13.84,6.22c-8,0-16.85-4.42-16.85-14.85C54.07,176.37,76.65,176.07,85.17,176.07ZM70.93,204c11.64,0,17.56-11.23,17.56-21.27V180H85.27c-3.71,0-26.79-.9-26.79,12.54C58.49,198.44,62.8,204,70.93,204Z"/><path class="cls-1" d="M140.35,163.33a23.54,23.54,0,0,1,1.8-2.11l.7-.7v-.2h-1.1c-.7,0-1.51.1-2.61.1H113.57v9.53h-4.11V156.51h39.12v3.41l-31.9,39.93a23.18,23.18,0,0,1-1.81,2.11l-.7.7v.2a3.85,3.85,0,0,1,1.1-.1h29.19v-9.53h4.11v13.44h-40v-3.41Z"/><path class="cls-1" d="M160.52,221.31a5.69,5.69,0,0,0,1.81,1.21,8.48,8.48,0,0,0,4.42,1.2c4.72,0,8.13-4.31,9.93-9l3.41-8.23-18.26-46H155v-3.91h19.36v3.91h-7.92l14.95,38.22a10.94,10.94,0,0,1,.6,2l.2.8h.2a2.42,2.42,0,0,1,.2-.8c.3-.5.4-1.3.7-2l15-38.22h-7.93v-3.91h19.36v3.91h-6.92L180.08,217.2c-2.41,6-6.92,10.53-13.34,10.53a13.49,13.49,0,0,1-5.82-1.3,17.86,17.86,0,0,1-2.31-1.4Z"/><path class="cls-1" d="M208.07,196.13H218.5v10.54H208.07Z"/><path class="cls-1" d="M257,154.7c7.52,0,19.87,2.81,19.87,11.54v6.22h-8.63v-3.51c0-3.91-6.42-5.82-10.93-5.82-10.23,0-17.26,7.22-17.26,18.06,0,11.54,8.13,18.26,17.86,18.26,8.63,0,14.44-5.12,16.25-6.52l3.71,7.12a31,31,0,0,1-20.37,7.82c-14.65,0-27.39-10.13-27.39-26.48C230.14,165.84,241.88,154.7,257,154.7Z"/><path class="cls-1" d="M290.13,143.37H281.7v-7.52h18.16v55.78c0,4.31,1,7.22,5.42,7.22,1.6,0,2.71-.1,2.71-.1l-.1,8s-2,.2-4.31.2c-7.22,0-13.44-2.91-13.44-14.75Z"/><path class="cls-1" d="M342,154.7c15.15,0,27.39,11.14,27.39,26.48S357.14,207.87,342,207.87s-27.39-11.23-27.39-26.68S326.85,154.7,342,154.7Zm0,44.74c9.53,0,17.46-7.63,17.46-18.26s-7.93-18.06-17.46-18.06-17.46,7.52-17.46,18.06S332.37,199.44,342,199.44Z"/><path class="cls-1" d="M383.93,163.43H375.4v-7.52h18.26v30.5c0,7,1.4,12.64,9.53,12.64,10.13,0,16.45-9.73,16.45-19.76V163.43h-8.53v-7.52h18.26V197a2,2,0,0,0,2.21,2.21h5.32v7.43H426.36c-4.41,0-6.42-2-6.42-5.62v-2.2a21.78,21.78,0,0,1,.2-3h-.2a20.75,20.75,0,0,1-19.36,12c-10.94,0-16.65-6-16.65-19.46Z"/><path class="cls-1" d="M467.4,154.7c11.53,0,15.65,8.53,15.65,8.53h.2a22.88,22.88,0,0,1-.3-3.81V143.37h-8.43v-7.52h18.16v61.09a2,2,0,0,0,2.2,2.21H500v7.52H489.87c-4.51,0-6.32-2.21-6.32-5.52v-.7a10.32,10.32,0,0,1,.3-2.71h-.2s-4.11,10.13-17.15,10.13c-13.64,0-22.17-10.84-22.17-26.58C444.32,165.13,453.75,154.7,467.4,154.7Zm1.2,44.74c7.52,0,14.65-5.42,14.65-18.06,0-9.33-4.72-18.16-14.35-18.16-8.13,0-14.65,6.52-14.65,18.06C454.25,192.32,460.17,199.44,468.6,199.44Z"/><path class="cls-1" d="M239.39,45.4,215.77,69A29.8,29.8,0,1,1,210,22.41L191.25,41.15,204.09,54l23.62-23.62-.09-.09,8.62-8.62L228.61,14a48,48,0,1,0,0,67.82l23.62-23.62Z"/><path class="cls-1" d="M338.56,14a48,48,0,0,0-67.82,0L247.13,37.66,260,50.51l23.62-23.62a29.78,29.78,0,1,1,0,42.14L276,61.39,263.13,74.24l7.62,7.62A48,48,0,0,0,338.56,14Z"/></g></g></svg>